<svg width="37" height="23" viewBox="0 0 37 23" fill="none" xmlns="http://www.w3.org/2000/svg">
<path d="M18.12 21.97H15.45L13.23 15.4H4.98L2.64 21.97H0.27L7.74 0.64H10.59L18.12 21.97ZM12.54 13.39L9.09 3.19H9.03L5.61 13.39H12.54ZM36.517 6.49H33.967C33.967 5.77 33.827 5.15 33.547 4.63C33.287 4.09 32.947 3.65 32.527 3.31C32.087 2.99 31.587 2.75 31.027 2.59C30.467 2.41 29.887 2.31 29.287 2.29C28.307 2.29 27.387 2.49 26.527 2.89C25.667 3.27 24.917 3.84 24.277 4.6C23.637 5.34 23.137 6.26 22.777 7.36C22.417 8.44 22.237 9.67 22.237 11.05C22.237 11.81 22.327 12.72 22.507 13.78C22.707 14.84 23.087 15.85 23.647 16.81C24.207 17.79 24.997 18.63 26.017 19.33C27.037 20.03 28.377 20.39 30.037 20.41C31.357 20.43 32.497 20.26 33.457 19.9C34.417 19.52 35.167 19.11 35.707 18.67V21.07C35.527 21.17 35.267 21.29 34.927 21.43C34.607 21.57 34.197 21.71 33.697 21.85C33.197 21.99 32.597 22.11 31.897 22.21C31.197 22.31 30.377 22.36 29.437 22.36C27.737 22.36 26.277 22.03 25.057 21.37C23.837 20.69 22.827 19.81 22.027 18.73C21.227 17.65 20.637 16.43 20.257 15.07C19.897 13.71 19.717 12.34 19.717 10.96C19.717 9.6 19.907 8.28 20.287 7C20.687 5.72 21.287 4.59 22.087 3.61C22.887 2.63 23.887 1.84 25.087 1.24C26.287 0.639998 27.687 0.339998 29.287 0.339998C30.247 0.339998 31.157 0.489999 32.017 0.789999C32.897 1.07 33.667 1.47 34.327 1.99C34.987 2.53 35.517 3.18 35.917 3.94C36.317 4.7 36.517 5.55 36.517 6.49Z" fill="black"/>
</svg>
