<svg width="18" height="19" viewBox="0 0 18 19" fill="none" xmlns="http://www.w3.org/2000/svg">
<path d="M7.21 2.92C7.21 3.42 7.4 3.84 7.78 4.18C8.14 4.5 8.56 4.66 9.04 4.66C9.56 4.66 10.01 4.5 10.39 4.18C10.75 3.84 10.93 3.42 10.93 2.92C10.93 2.34 10.75 1.87 10.39 1.51C10.03 1.15 9.58 0.97 9.04 0.97C8.48 0.97 8.04 1.17 7.72 1.57C7.38 1.95 7.21 2.4 7.21 2.92ZM0.369998 10.78H17.77V8.68H0.369998V10.78ZM7.18 16.54C7.18 17.06 7.37 17.51 7.75 17.89C8.13 18.25 8.57 18.43 9.07 18.43C9.61 18.43 10.07 18.26 10.45 17.92C10.81 17.56 10.99 17.11 10.99 16.57C10.99 16.09 10.8 15.66 10.42 15.28C10.04 14.9 9.6 14.71 9.1 14.71C8.52 14.71 8.06 14.9 7.72 15.28C7.36 15.64 7.18 16.06 7.18 16.54Z" fill="black"/>
</svg>
