<svg width="22" height="30" viewBox="0 0 22 36" fill="none" xmlns="http://www.w3.org/2000/svg">
<path d="M21.416 26.024C21.416 29 20.456 31.336 18.536 33.032C16.616 34.696 14.104 35.544 11 35.576C9.56 35.576 8.2 35.384 6.92 35C5.672 34.584 4.584 33.976 3.656 33.176C2.728 32.376 1.992 31.368 1.448 30.152C0.904 28.936 0.632 27.512 0.632 25.88C0.632 24.6 0.808 23.464 1.16 22.472C1.544 21.48 2.024 20.632 2.6 19.928C3.176 19.224 3.816 18.68 4.52 18.296C5.224 17.88 5.896 17.592 6.536 17.432V17.336C6.088 17.208 5.56 17 4.952 16.712C4.376 16.392 3.816 15.928 3.272 15.32C2.728 14.712 2.264 13.912 1.88 12.92C1.496 11.928 1.304 10.68 1.304 9.176C1.304 8.088 1.528 7.048 1.976 6.056C2.424 5.032 3.064 4.12 3.896 3.32C4.76 2.52 5.784 1.88 6.968 1.4C8.184 0.919998 9.56 0.679998 11.096 0.679998C12.344 0.679998 13.544 0.903998 14.696 1.352C15.88 1.768 16.92 2.344 17.816 3.08C18.712 3.816 19.432 4.712 19.976 5.768C20.52 6.792 20.792 7.896 20.792 9.08C20.792 11.384 20.232 13.24 19.112 14.648C17.992 16.056 16.792 16.952 15.512 17.336V17.432C15.928 17.528 16.472 17.752 17.144 18.104C17.816 18.456 18.472 18.968 19.112 19.64C19.72 20.344 20.248 21.224 20.696 22.28C21.176 23.336 21.416 24.584 21.416 26.024ZM17.048 9.56C17.048 7.64 16.488 6.12 15.368 5C14.28 3.848 12.824 3.272 11 3.272C9.368 3.272 7.96 3.848 6.776 5C5.624 6.12 5.048 7.608 5.048 9.464C5.048 10.904 5.32 12.136 5.864 13.16C6.408 14.152 7.32 14.936 8.6 15.512C8.92 15.672 9.304 15.784 9.752 15.848C10.2 15.912 10.696 15.944 11.24 15.944C13 15.944 14.392 15.336 15.416 14.12C16.44 12.904 16.984 11.384 17.048 9.56ZM17.624 25.688C17.624 23.896 17.048 22.312 15.896 20.936C14.776 19.56 13.144 18.84 11 18.776C9.176 18.776 7.624 19.416 6.344 20.696C5.096 21.944 4.456 23.592 4.424 25.64C4.424 26.408 4.52 27.224 4.712 28.088C4.904 28.92 5.256 29.688 5.768 30.392C6.248 31.096 6.92 31.672 7.784 32.12C8.68 32.568 9.8 32.792 11.144 32.792C13.128 32.792 14.68 32.184 15.8 30.968C16.952 29.752 17.56 27.992 17.624 25.688Z" fill="black"/>
</svg>
