<svg width="22" height="30" viewBox="0 0 22 35" fill="none" xmlns="http://www.w3.org/2000/svg">
<path d="M21.32 24.016C21.32 25.424 21.048 26.768 20.504 28.048C19.992 29.328 19.272 30.448 18.344 31.408C17.416 32.368 16.28 33.136 14.936 33.712C13.624 34.256 12.152 34.528 10.52 34.528C8.76 34.528 7.256 34.304 6.008 33.856C4.792 33.376 3.784 32.784 2.984 32.08C2.216 31.376 1.656 30.624 1.304 29.824C0.952 28.992 0.776 28.208 0.776 27.472H5.192C5.192 27.856 5.272 28.304 5.432 28.816C5.624 29.296 5.928 29.76 6.344 30.208C6.76 30.624 7.304 30.992 7.976 31.312C8.648 31.6 9.48 31.744 10.472 31.744C12.488 31.744 14.136 31.04 15.416 29.632C16.696 28.192 17.384 26.288 17.48 23.92C17.48 21.616 16.84 19.808 15.56 18.496C14.312 17.184 12.792 16.464 11 16.336C9.752 16.272 8.728 16.48 7.928 16.96C7.128 17.44 6.44 18.064 5.864 18.832H2.12L2.984 0.207997H19.304V3.568H6.392L5.864 15.136C6.44 14.752 7.176 14.4 8.072 14.08C9 13.728 10.072 13.552 11.288 13.552C14.36 13.552 16.792 14.528 18.584 16.48C20.408 18.432 21.32 20.944 21.32 24.016Z" fill="black"/>
</svg>
