<svg width="21" height="30" viewBox="0 0 21 36" fill="none" xmlns="http://www.w3.org/2000/svg">
<path d="M20.648 18.776C20.648 20.76 20.504 22.744 20.216 24.728C19.928 26.712 19.4 28.504 18.632 30.104C17.864 31.736 16.776 33.048 15.368 34.04C13.992 35.032 12.2 35.528 9.992 35.528C8.488 35.528 7.16 35.32 6.008 34.904C4.856 34.456 3.896 33.88 3.128 33.176C2.328 32.504 1.72 31.752 1.304 30.92C0.92 30.088 0.728 29.288 0.728 28.52H5.096C5.096 28.872 5.176 29.304 5.336 29.816C5.496 30.296 5.768 30.744 6.152 31.16C6.536 31.608 7.048 31.992 7.688 32.312C8.328 32.6 9.128 32.744 10.088 32.744C11.432 32.744 12.536 32.344 13.4 31.544C14.296 30.744 14.984 29.752 15.464 28.568C15.976 27.352 16.328 26.04 16.52 24.632C16.744 23.192 16.856 21.848 16.856 20.6V18.392H16.712C16.488 18.712 16.2 19.08 15.848 19.496C15.496 19.912 15.032 20.312 14.456 20.696C13.848 21.08 13.112 21.4 12.248 21.656C11.416 21.912 10.408 22.04 9.224 22.04C7.816 22.04 6.552 21.768 5.432 21.224C4.312 20.68 3.352 19.928 2.552 18.968C1.752 18.008 1.128 16.888 0.68 15.608C0.264 14.296 0.0560001 12.888 0.0560001 11.384C0.0560001 9.944 0.296 8.568 0.776 7.256C1.256 5.944 1.944 4.808 2.84 3.848C3.736 2.856 4.792 2.072 6.008 1.496C7.224 0.919999 8.584 0.631999 10.088 0.631999C11.752 0.631999 13.176 0.935999 14.36 1.544C15.544 2.152 16.552 2.968 17.384 3.992C18.184 5.016 18.808 6.2 19.256 7.544C19.736 8.856 20.088 10.248 20.312 11.72C20.408 12.68 20.488 13.832 20.552 15.176C20.616 16.52 20.648 17.72 20.648 18.776ZM16.28 11.288C16.28 10.424 16.168 9.544 15.944 8.648C15.752 7.72 15.416 6.888 14.936 6.152C14.456 5.416 13.816 4.808 13.016 4.328C12.248 3.816 11.272 3.528 10.088 3.464C8.264 3.464 6.776 4.184 5.624 5.624C4.504 7.032 3.896 8.904 3.8 11.24C3.8 13.448 4.328 15.336 5.384 16.904C6.44 18.44 8.024 19.224 10.136 19.256C11.096 19.256 11.944 19.048 12.68 18.632C13.416 18.184 14.056 17.592 14.6 16.856C15.112 16.12 15.512 15.272 15.8 14.312C16.088 13.352 16.248 12.344 16.28 11.288Z" fill="black"/>
</svg>
