<svg width="22" height="30" viewBox="0 0 22 36" fill="none" xmlns="http://www.w3.org/2000/svg">
<path d="M21.896 24.92C21.896 26.264 21.688 27.56 21.272 28.808C20.856 30.056 20.232 31.176 19.4 32.168C18.568 33.16 17.528 33.976 16.28 34.616C15.064 35.224 13.624 35.544 11.96 35.576C10.232 35.576 8.744 35.288 7.496 34.712C6.28 34.136 5.24 33.352 4.376 32.36C3.544 31.336 2.872 30.152 2.36 28.808C1.88 27.464 1.528 26.024 1.304 24.488C1.208 23.528 1.128 22.456 1.064 21.272C1 20.088 0.968 18.968 0.968 17.912C0.968 15.96 1.112 13.96 1.4 11.912C1.72 9.864 2.28 8.008 3.08 6.344C3.912 4.68 5.048 3.32 6.488 2.264C7.928 1.176 9.8 0.631999 12.104 0.631999C13.704 0.631999 15.064 0.887999 16.184 1.4C17.336 1.88 18.28 2.472 19.016 3.176C19.752 3.912 20.296 4.68 20.648 5.48C21 6.28 21.176 7 21.176 7.64H17C17 7.32 16.888 6.92 16.664 6.44C16.472 5.928 16.184 5.464 15.8 5.048C15.384 4.6 14.856 4.216 14.216 3.896C13.576 3.576 12.808 3.416 11.912 3.416C10.728 3.416 9.688 3.768 8.792 4.472C7.896 5.176 7.16 6.12 6.584 7.304C5.976 8.456 5.528 9.8 5.24 11.336C4.952 12.84 4.808 14.408 4.808 16.04V18.344H4.904C5.128 17.992 5.416 17.608 5.768 17.192C6.152 16.744 6.664 16.344 7.304 15.992C7.912 15.608 8.664 15.288 9.56 15.032C10.456 14.776 11.544 14.648 12.824 14.648C14.264 14.648 15.544 14.936 16.664 15.512C17.784 16.056 18.728 16.792 19.496 17.72C20.264 18.648 20.856 19.736 21.272 20.984C21.688 22.232 21.896 23.544 21.896 24.92ZM18.008 24.92C18.008 22.808 17.464 21.048 16.376 19.64C15.288 18.2 13.784 17.48 11.864 17.48C9.976 17.48 8.44 18.2 7.256 19.64C6.072 21.048 5.464 22.792 5.432 24.872C5.432 25.832 5.576 26.792 5.864 27.752C6.152 28.68 6.568 29.512 7.112 30.248C7.656 31.016 8.328 31.624 9.128 32.072C9.96 32.52 10.904 32.744 11.96 32.744C13.656 32.744 15.08 32.04 16.232 30.632C17.416 29.224 18.008 27.32 18.008 24.92Z" fill="black"/>
</svg>
