<svg width="22" height="30" viewBox="0 0 22 36" fill="none" xmlns="http://www.w3.org/2000/svg">
<path d="M21.08 25.736C21.08 27.112 20.856 28.408 20.408 29.624C19.96 30.808 19.304 31.832 18.44 32.696C17.576 33.592 16.504 34.296 15.224 34.808C13.944 35.32 12.472 35.576 10.808 35.576C9.112 35.576 7.656 35.384 6.44 35C5.224 34.616 4.2 34.088 3.368 33.416C2.536 32.776 1.896 32.04 1.448 31.208C1 30.344 0.728 29.448 0.632 28.52H4.808C4.808 28.904 4.92 29.352 5.144 29.864C5.368 30.344 5.72 30.792 6.2 31.208C6.648 31.656 7.224 32.024 7.928 32.312C8.664 32.6 9.56 32.744 10.616 32.744C12.728 32.744 14.328 32.072 15.416 30.728C16.536 29.352 17.096 27.608 17.096 25.496C17.096 24.12 16.808 22.984 16.232 22.088C15.656 21.192 14.952 20.488 14.12 19.976C13.256 19.496 12.328 19.16 11.336 18.968C10.344 18.744 9.432 18.632 8.6 18.632V15.8C11.48 15.8 13.544 15.208 14.792 14.024C16.072 12.808 16.712 11.32 16.712 9.56C16.712 7.8 16.152 6.344 15.032 5.192C13.944 4.04 12.616 3.464 11.048 3.464C9.096 3.464 7.624 3.912 6.632 4.808C5.672 5.704 5.128 6.632 5 7.592H1.208C1.208 6.952 1.384 6.232 1.736 5.432C2.12 4.632 2.696 3.88 3.464 3.176C4.264 2.472 5.256 1.88 6.44 1.4C7.656 0.919998 9.112 0.679998 10.808 0.679998C12.024 0.679998 13.208 0.887999 14.36 1.304C15.512 1.688 16.552 2.248 17.48 2.984C18.376 3.752 19.096 4.68 19.64 5.768C20.216 6.856 20.504 8.104 20.504 9.512C20.504 10.632 20.28 11.624 19.832 12.488C19.416 13.352 18.904 14.104 18.296 14.744C17.656 15.384 16.984 15.912 16.28 16.328C15.608 16.712 15 16.968 14.456 17.096V17.192C15.032 17.352 15.704 17.608 16.472 17.96C17.24 18.312 17.96 18.808 18.632 19.448C19.304 20.12 19.88 20.968 20.36 21.992C20.84 23.016 21.08 24.264 21.08 25.736Z" fill="black"/>
</svg>
