<svg width="21" height="30" viewBox="0 0 21 35" fill="none" xmlns="http://www.w3.org/2000/svg">
<path d="M20.08 35H0.592V31.688C0.72 31.592 0.848 31.48 0.976 31.352C1.136 31.224 1.312 31.08 1.504 30.92C1.696 30.792 1.888 30.632 2.08 30.44C2.304 30.248 2.544 30.04 2.8 29.816C3.504 29.112 4.4 28.184 5.488 27.032C6.608 25.88 7.76 24.6 8.944 23.192C10.096 21.816 11.2 20.36 12.256 18.824C13.312 17.288 14.16 15.784 14.8 14.312C15.056 13.64 15.248 12.824 15.376 11.864C15.536 10.904 15.616 10.088 15.616 9.416C15.616 8.936 15.52 8.36 15.328 7.688C15.136 6.984 14.816 6.328 14.368 5.72C13.92 5.08 13.328 4.552 12.592 4.136C11.856 3.688 10.96 3.464 9.904 3.464C8.08 3.464 6.656 4.056 5.632 5.24C4.64 6.424 4.192 7.688 4.288 9.032H0.352C0.352 8.392 0.48 7.592 0.736 6.632C1.024 5.672 1.536 4.76 2.272 3.896C2.976 3 3.952 2.232 5.2 1.592C6.448 0.951999 8.032 0.631999 9.952 0.631999C11.136 0.631999 12.288 0.855999 13.408 1.304C14.56 1.72 15.584 2.312 16.48 3.08C17.344 3.88 18.048 4.856 18.592 6.008C19.136 7.128 19.408 8.392 19.408 9.8C19.408 10.504 19.328 11.384 19.168 12.44C19.04 13.464 18.832 14.344 18.544 15.08C18 16.584 17.2 18.104 16.144 19.64C15.088 21.176 13.92 22.664 12.64 24.104C11.392 25.544 10.096 26.92 8.752 28.232C7.44 29.544 6.256 30.728 5.2 31.784H20.08V35Z" fill="black"/>
</svg>
