<svg width="22" height="30" viewBox="0 0 22 36" fill="none" xmlns="http://www.w3.org/2000/svg">
<path d="M21.32 18.104C21.32 20.024 21.176 22.008 20.888 24.056C20.632 26.104 20.12 27.992 19.352 29.72C18.616 31.416 17.576 32.824 16.232 33.944C14.888 35.032 13.144 35.576 11 35.576C9.08 35.576 7.448 35.096 6.104 34.136C4.792 33.144 3.736 31.832 2.936 30.2C2.136 28.568 1.56 26.712 1.208 24.632C0.856 22.52 0.68 20.344 0.68 18.104C0.68 16.184 0.824 14.2 1.112 12.152C1.432 10.104 1.976 8.216 2.744 6.488C3.544 4.792 4.6 3.4 5.912 2.312C7.256 1.192 8.952 0.631999 11 0.631999C13.08 0.631999 14.776 1.144 16.088 2.168C17.4 3.192 18.44 4.536 19.208 6.2C19.944 7.832 20.456 9.704 20.744 11.816C21.064 13.896 21.256 15.992 21.32 18.104ZM17.48 18.104C17.48 16.472 17.4 14.792 17.24 13.064C17.08 11.304 16.776 9.72 16.328 8.312C15.88 6.904 15.224 5.752 14.36 4.856C13.496 3.928 12.376 3.464 11 3.464C9.624 3.464 8.504 3.912 7.64 4.808C6.808 5.704 6.168 6.856 5.72 8.264C5.24 9.704 4.92 11.288 4.76 13.016C4.6 14.744 4.52 16.44 4.52 18.104C4.52 19.8 4.6 21.512 4.76 23.24C4.92 24.968 5.24 26.536 5.72 27.944C6.2 29.384 6.856 30.552 7.688 31.448C8.552 32.312 9.656 32.744 11 32.744C12.376 32.744 13.496 32.312 14.36 31.448C15.224 30.552 15.88 29.4 16.328 27.992C16.776 26.584 17.08 25.016 17.24 23.288C17.4 21.56 17.48 19.832 17.48 18.104Z" fill="black"/>
</svg>
